<svg width="189" height="55" viewBox="0 0 189 55" fill="none" xmlns="http://www.w3.org/2000/svg">
<path d="M74.48 35L69.84 7.68H75.4L78.76 29.68H79.72L83.88 7.96H90.08L94.32 29.68H95.28L98.44 7.68H104.04L99.48 35H90.72L86.84 13.32H87.04L83.12 35H74.48ZM115.258 35.44C113.044 35.44 111.284 35.0667 109.978 34.32C108.698 33.5733 107.778 32.44 107.218 30.92C106.658 29.4 106.378 27.4933 106.378 25.2C106.378 22.72 106.724 20.6933 107.418 19.12C108.138 17.5467 109.178 16.3867 110.538 15.64C111.898 14.8667 113.578 14.48 115.578 14.48C118.538 14.48 120.764 15.2267 122.258 16.72C123.778 18.2133 124.538 20.5733 124.538 23.8L124.298 26.76H111.738C111.764 28.2533 112.071 29.3733 112.658 30.12C113.244 30.8667 114.258 31.24 115.698 31.24C116.524 31.24 117.431 31.2267 118.418 31.2C119.404 31.1467 120.378 31.0933 121.338 31.04C122.324 30.9867 123.164 30.9333 123.858 30.88L123.978 34.6C123.311 34.7067 122.471 34.8267 121.458 34.96C120.444 35.0933 119.391 35.2 118.298 35.28C117.231 35.3867 116.218 35.44 115.258 35.44ZM111.738 23.36H119.218C119.218 21.5467 118.924 20.28 118.338 19.56C117.778 18.84 116.858 18.48 115.578 18.48C114.324 18.48 113.364 18.8533 112.698 19.6C112.058 20.3467 111.738 21.6 111.738 23.36ZM128.235 35V6.72H133.555V35H128.235ZM138.274 35V6.72H143.594V35H138.274ZM156.153 35.44C155.486 35.44 154.673 35.4133 153.713 35.36C152.753 35.3067 151.766 35.2267 150.753 35.12C149.766 35.0133 148.886 34.92 148.113 34.84V6.72H153.473V15.56C154.086 15.32 154.886 15.08 155.873 14.84C156.86 14.6 157.78 14.48 158.633 14.48C160.5 14.48 161.98 14.8667 163.073 15.64C164.193 16.3867 164.993 17.5067 165.473 19C165.953 20.4933 166.193 22.3733 166.193 24.64C166.193 27.3067 165.886 29.44 165.273 31.04C164.686 32.6133 163.66 33.7467 162.193 34.44C160.726 35.1067 158.713 35.44 156.153 35.44ZM156.193 30.96C157.5 30.96 158.473 30.7333 159.113 30.28C159.753 29.8 160.18 29.0933 160.393 28.16C160.633 27.2267 160.753 26.08 160.753 24.72C160.753 23.3333 160.646 22.2267 160.433 21.4C160.22 20.5467 159.86 19.9333 159.353 19.56C158.873 19.16 158.193 18.96 157.313 18.96C156.646 18.96 155.953 19.0533 155.233 19.24C154.513 19.4267 153.926 19.6 153.473 19.76V30.8C153.873 30.8267 154.34 30.8667 154.873 30.92C155.406 30.9467 155.846 30.96 156.193 30.96ZM177.992 35.44C175.779 35.44 174.019 35.0667 172.712 34.32C171.432 33.5733 170.512 32.44 169.952 30.92C169.392 29.4 169.112 27.4933 169.112 25.2C169.112 22.72 169.459 20.6933 170.152 19.12C170.872 17.5467 171.912 16.3867 173.272 15.64C174.632 14.8667 176.312 14.48 178.312 14.48C181.272 14.48 183.499 15.2267 184.992 16.72C186.512 18.2133 187.272 20.5733 187.272 23.8L187.032 26.76H174.472C174.499 28.2533 174.805 29.3733 175.392 30.12C175.979 30.8667 176.992 31.24 178.432 31.24C179.259 31.24 180.165 31.2267 181.152 31.2C182.139 31.1467 183.112 31.0933 184.072 31.04C185.059 30.9867 185.899 30.9333 186.592 30.88L186.712 34.6C186.045 34.7067 185.205 34.8267 184.192 34.96C183.179 35.0933 182.125 35.2 181.032 35.28C179.965 35.3867 178.952 35.44 177.992 35.44ZM174.472 23.36H181.952C181.952 21.5467 181.659 20.28 181.072 19.56C180.512 18.84 179.592 18.48 178.312 18.48C177.059 18.48 176.099 18.8533 175.432 19.6C174.792 20.3467 174.472 21.6 174.472 23.36Z" fill="#515977"/>
<path d="M70.322 51L72.968 41.326H75.39L78.022 51H76.902L76.216 48.55H72.128L71.442 51H70.322ZM72.366 47.556H75.978L74.536 42.278H73.808L72.366 47.556ZM79.3478 51V44H80.4258V44.49C80.5845 44.3967 80.7805 44.3033 81.0138 44.21C81.2565 44.1167 81.5132 44.0373 81.7838 43.972C82.0545 43.8973 82.3158 43.86 82.5678 43.86C83.2118 43.86 83.7018 43.9767 84.0378 44.21C84.3832 44.434 84.6212 44.798 84.7518 45.302C84.8825 45.806 84.9478 46.4687 84.9478 47.29V51H83.8558V47.332C83.8558 46.7253 83.8185 46.24 83.7438 45.876C83.6785 45.512 83.5385 45.2507 83.3238 45.092C83.1185 44.924 82.8012 44.84 82.3718 44.84C82.1385 44.84 81.8958 44.868 81.6438 44.924C81.4012 44.9707 81.1725 45.036 80.9578 45.12C80.7432 45.1947 80.5658 45.2693 80.4258 45.344V51H79.3478ZM88.407 51.14C87.763 51.14 87.273 50.958 86.937 50.594C86.601 50.23 86.433 49.698 86.433 48.998C86.433 48.5407 86.5124 48.1673 86.671 47.878C86.8297 47.5887 87.0677 47.3693 87.385 47.22C87.7117 47.0613 88.113 46.9633 88.589 46.926L90.745 46.716V46.114C90.745 45.638 90.6377 45.302 90.423 45.106C90.2177 44.91 89.9097 44.812 89.499 44.812C89.2657 44.812 88.9857 44.8213 88.659 44.84C88.3417 44.8587 88.0244 44.882 87.707 44.91C87.3897 44.938 87.1097 44.966 86.867 44.994L86.811 44.168C87.035 44.1213 87.3057 44.0747 87.623 44.028C87.9404 43.9813 88.2717 43.944 88.617 43.916C88.9624 43.8787 89.2797 43.86 89.569 43.86C90.101 43.86 90.535 43.944 90.871 44.112C91.207 44.2707 91.4497 44.518 91.599 44.854C91.7577 45.1807 91.837 45.6007 91.837 46.114V49.656C91.8557 49.8613 91.935 50.0107 92.075 50.104C92.2244 50.1973 92.411 50.258 92.635 50.286L92.593 51.14C92.3877 51.14 92.201 51.126 92.033 51.098C91.865 51.0793 91.7064 51.0467 91.557 51C91.4357 50.9533 91.319 50.8973 91.207 50.832C91.1044 50.7667 91.0017 50.6873 90.899 50.594C90.7217 50.6687 90.493 50.748 90.213 50.832C89.9424 50.916 89.6484 50.986 89.331 51.042C89.023 51.1073 88.715 51.14 88.407 51.14ZM88.589 50.23C88.841 50.23 89.1024 50.2067 89.373 50.16C89.6437 50.1133 89.9004 50.0573 90.143 49.992C90.3857 49.9267 90.5864 49.866 90.745 49.81V47.528L88.715 47.724C88.295 47.7613 87.9917 47.8827 87.805 48.088C87.6277 48.2933 87.539 48.5873 87.539 48.97C87.539 49.362 87.6277 49.67 87.805 49.894C87.9824 50.118 88.2437 50.23 88.589 50.23ZM93.9924 51V40.962H95.0704V51H93.9924ZM98.632 54.094L99.542 51H98.492L96.518 44H97.61L99.318 50.062H99.794L101.516 44H102.608L99.724 54.094H98.632ZM106.253 51.154C105.768 51.154 105.381 51.0793 105.091 50.93C104.811 50.7807 104.611 50.524 104.489 50.16C104.368 49.7867 104.307 49.264 104.307 48.592V44.938H103.313V44H104.307V41.858H105.385V44H107.583V44.938H105.385V48.27C105.385 48.7647 105.404 49.152 105.441 49.432C105.488 49.7027 105.581 49.894 105.721 50.006C105.861 50.118 106.081 50.174 106.379 50.174C106.473 50.174 106.594 50.1693 106.743 50.16C106.893 50.1507 107.042 50.1413 107.191 50.132C107.35 50.1133 107.49 50.0993 107.611 50.09L107.681 51C107.476 51.028 107.233 51.0607 106.953 51.098C106.673 51.1353 106.44 51.154 106.253 51.154ZM108.865 51V44H109.943V51H108.865ZM108.865 42.46V41.2H109.943V42.46H108.865ZM114.545 51.14C113.808 51.14 113.229 51.0187 112.809 50.776C112.389 50.524 112.091 50.1227 111.913 49.572C111.745 49.0213 111.661 48.2933 111.661 47.388C111.661 46.5387 111.755 45.8573 111.941 45.344C112.137 44.8213 112.45 44.4433 112.879 44.21C113.309 43.9767 113.869 43.86 114.559 43.86C114.718 43.86 114.909 43.874 115.133 43.902C115.367 43.9207 115.605 43.9487 115.847 43.986C116.09 44.014 116.3 44.042 116.477 44.07L116.435 44.966C116.277 44.9473 116.095 44.9287 115.889 44.91C115.684 44.8913 115.483 44.8773 115.287 44.868C115.091 44.8493 114.928 44.84 114.797 44.84C114.265 44.84 113.85 44.924 113.551 45.092C113.262 45.26 113.057 45.5307 112.935 45.904C112.823 46.268 112.767 46.7627 112.767 47.388C112.767 48.0693 112.819 48.6153 112.921 49.026C113.024 49.4273 113.22 49.7167 113.509 49.894C113.799 50.0713 114.228 50.16 114.797 50.16C114.928 50.16 115.091 50.1553 115.287 50.146C115.493 50.1273 115.698 50.1087 115.903 50.09C116.118 50.0713 116.305 50.0573 116.463 50.048L116.491 50.944C116.305 50.972 116.09 51 115.847 51.028C115.605 51.056 115.367 51.0793 115.133 51.098C114.9 51.126 114.704 51.14 114.545 51.14ZM120.237 51.14C120.022 51.14 119.761 51.126 119.453 51.098C119.154 51.07 118.856 51.0373 118.557 51C118.258 50.9533 117.992 50.9113 117.759 50.874L117.815 49.936C118.048 49.964 118.31 49.9967 118.599 50.034C118.898 50.0713 119.187 50.104 119.467 50.132C119.747 50.1507 119.971 50.16 120.139 50.16C120.522 50.16 120.839 50.1273 121.091 50.062C121.343 49.9873 121.534 49.866 121.665 49.698C121.796 49.53 121.861 49.292 121.861 48.984C121.861 48.7507 121.81 48.5687 121.707 48.438C121.614 48.3073 121.432 48.2 121.161 48.116C120.9 48.032 120.517 47.9527 120.013 47.878C119.49 47.794 119.052 47.6913 118.697 47.57C118.352 47.4393 118.095 47.248 117.927 46.996C117.759 46.744 117.675 46.3847 117.675 45.918C117.675 45.3953 117.796 44.9847 118.039 44.686C118.282 44.3873 118.594 44.1773 118.977 44.056C119.369 43.9253 119.775 43.86 120.195 43.86C120.456 43.86 120.741 43.874 121.049 43.902C121.366 43.93 121.674 43.9673 121.973 44.014C122.272 44.0513 122.528 44.0887 122.743 44.126L122.715 45.064C122.491 45.0267 122.23 44.994 121.931 44.966C121.632 44.9287 121.334 44.9007 121.035 44.882C120.736 44.854 120.475 44.84 120.251 44.84C119.971 44.84 119.719 44.8727 119.495 44.938C119.271 44.994 119.094 45.0967 118.963 45.246C118.832 45.3953 118.767 45.6053 118.767 45.876C118.767 46.0813 118.814 46.2493 118.907 46.38C119 46.5013 119.178 46.604 119.439 46.688C119.7 46.772 120.078 46.856 120.573 46.94C121.152 47.0333 121.614 47.15 121.959 47.29C122.314 47.43 122.57 47.626 122.729 47.878C122.888 48.13 122.967 48.4847 122.967 48.942C122.967 49.7633 122.724 50.3373 122.239 50.664C121.754 50.9813 121.086 51.14 120.237 51.14ZM127.819 51V41.326H131.361C132.07 41.326 132.653 41.4427 133.111 41.676C133.568 41.9 133.909 42.2453 134.133 42.712C134.357 43.1693 134.469 43.7527 134.469 44.462C134.469 45.162 134.357 45.7593 134.133 46.254C133.909 46.7393 133.568 47.1127 133.111 47.374C132.653 47.626 132.07 47.752 131.361 47.752H128.939V51H127.819ZM128.939 46.772H131.361C132.051 46.772 132.551 46.5713 132.859 46.17C133.167 45.7687 133.321 45.1993 133.321 44.462C133.321 43.7153 133.167 43.1693 132.859 42.824C132.551 42.4787 132.051 42.306 131.361 42.306H128.939V46.772ZM138.624 51.14C137.84 51.14 137.228 51.0047 136.79 50.734C136.36 50.4633 136.057 50.0527 135.88 49.502C135.712 48.9513 135.628 48.256 135.628 47.416C135.628 46.6133 135.721 45.9507 135.908 45.428C136.104 44.9053 136.421 44.5133 136.86 44.252C137.298 43.9907 137.886 43.86 138.624 43.86C139.37 43.86 139.963 43.9907 140.402 44.252C140.84 44.5133 141.153 44.9053 141.34 45.428C141.536 45.9507 141.634 46.6133 141.634 47.416C141.634 48.256 141.545 48.9513 141.368 49.502C141.2 50.0527 140.896 50.4633 140.458 50.734C140.028 51.0047 139.417 51.14 138.624 51.14ZM138.624 50.202C139.165 50.202 139.571 50.1087 139.842 49.922C140.112 49.726 140.29 49.4227 140.374 49.012C140.467 48.6013 140.514 48.0693 140.514 47.416C140.514 46.772 140.458 46.2587 140.346 45.876C140.234 45.4933 140.042 45.218 139.772 45.05C139.501 44.882 139.118 44.798 138.624 44.798C138.138 44.798 137.756 44.882 137.476 45.05C137.205 45.218 137.014 45.4933 136.902 45.876C136.79 46.2587 136.734 46.772 136.734 47.416C136.734 48.0693 136.776 48.6013 136.86 49.012C136.953 49.4227 137.135 49.726 137.406 49.922C137.676 50.1087 138.082 50.202 138.624 50.202ZM143.346 51V44H144.424V44.938C144.601 44.8167 144.825 44.686 145.096 44.546C145.367 44.3967 145.665 44.2567 145.992 44.126C146.319 43.9953 146.645 43.902 146.972 43.846V44.952C146.655 45.0173 146.333 45.106 146.006 45.218C145.679 45.3207 145.376 45.4327 145.096 45.554C144.825 45.6753 144.601 45.7827 144.424 45.876V51H143.346ZM150.495 51.154C150.01 51.154 149.623 51.0793 149.333 50.93C149.053 50.7807 148.853 50.524 148.731 50.16C148.61 49.7867 148.549 49.264 148.549 48.592V44.938H147.555V44H148.549V41.858H149.627V44H151.825V44.938H149.627V48.27C149.627 48.7647 149.646 49.152 149.683 49.432C149.73 49.7027 149.823 49.894 149.963 50.006C150.103 50.118 150.323 50.174 150.621 50.174C150.715 50.174 150.836 50.1693 150.985 50.16C151.135 50.1507 151.284 50.1413 151.433 50.132C151.592 50.1133 151.732 50.0993 151.853 50.09L151.923 51C151.718 51.028 151.475 51.0607 151.195 51.098C150.915 51.1353 150.682 51.154 150.495 51.154ZM154.634 51.14C153.99 51.14 153.5 50.958 153.164 50.594C152.828 50.23 152.66 49.698 152.66 48.998C152.66 48.5407 152.739 48.1673 152.898 47.878C153.056 47.5887 153.294 47.3693 153.612 47.22C153.938 47.0613 154.34 46.9633 154.816 46.926L156.972 46.716V46.114C156.972 45.638 156.864 45.302 156.65 45.106C156.444 44.91 156.136 44.812 155.726 44.812C155.492 44.812 155.212 44.8213 154.886 44.84C154.568 44.8587 154.251 44.882 153.934 44.91C153.616 44.938 153.336 44.966 153.094 44.994L153.038 44.168C153.262 44.1213 153.532 44.0747 153.85 44.028C154.167 43.9813 154.498 43.944 154.844 43.916C155.189 43.8787 155.506 43.86 155.796 43.86C156.328 43.86 156.762 43.944 157.098 44.112C157.434 44.2707 157.676 44.518 157.826 44.854C157.984 45.1807 158.064 45.6007 158.064 46.114V49.656C158.082 49.8613 158.162 50.0107 158.302 50.104C158.451 50.1973 158.638 50.258 158.862 50.286L158.82 51.14C158.614 51.14 158.428 51.126 158.26 51.098C158.092 51.0793 157.933 51.0467 157.784 51C157.662 50.9533 157.546 50.8973 157.434 50.832C157.331 50.7667 157.228 50.6873 157.126 50.594C156.948 50.6687 156.72 50.748 156.44 50.832C156.169 50.916 155.875 50.986 155.558 51.042C155.25 51.1073 154.942 51.14 154.634 51.14ZM154.816 50.23C155.068 50.23 155.329 50.2067 155.6 50.16C155.87 50.1133 156.127 50.0573 156.37 49.992C156.612 49.9267 156.813 49.866 156.972 49.81V47.528L154.942 47.724C154.522 47.7613 154.218 47.8827 154.032 48.088C153.854 48.2933 153.766 48.5873 153.766 48.97C153.766 49.362 153.854 49.67 154.032 49.894C154.209 50.118 154.47 50.23 154.816 50.23ZM160.219 51V40.962H161.297V51H160.219Z" fill="#A5A5A5"/>
<rect width="40" height="13.25" rx="6.625" transform="matrix(-3.61985e-08 -1 -1 5.27836e-08 53 48)" fill="#F2CF95"/>
<rect width="31.7241" height="13.25" rx="6.625" transform="matrix(-3.61985e-08 -1 -1 5.27836e-08 33.125 48)" fill="#94B8FB"/>
<rect width="24.1379" height="13.25" rx="6.625" transform="matrix(-3.61985e-08 -1 -1 5.27836e-08 13.25 48)" fill="#515977"/>
</svg>
